<region>
sample=$SAMPLE_DIR/ride_istanbul_agop_sigature_bell_a_01.wav
hivel=18
seq_length=2

<region>
sample=$SAMPLE_DIR/ride_istanbul_agop_sigature_bell_b_01.wav
hivel=18
seq_length=2
seq_position=2

<region>
sample=$SAMPLE_DIR/ride_istanbul_agop_sigature_bell_a_02.wav
lovel=19
hivel=36
seq_length=2

<region>
sample=$SAMPLE_DIR/ride_istanbul_agop_sigature_bell_b_02.wav
lovel=19
hivel=36
seq_length=2
seq_position=2

<region>
sample=$SAMPLE_DIR/ride_istanbul_agop_sigature_bell_a_03.wav
lovel=37
hivel=54
seq_length=2

<region>
sample=$SAMPLE_DIR/ride_istanbul_agop_sigature_bell_b_03.wav
lovel=37
hivel=54
seq_length=2
seq_position=2

<region>
sample=$SAMPLE_DIR/ride_istanbul_agop_sigature_bell_a_04.wav
lovel=55
hivel=72
seq_length=2

<region>
sample=$SAMPLE_DIR/ride_istanbul_agop_sigature_bell_b_04.wav
lovel=55
hivel=72
seq_length=2
seq_position=2

<region>
sample=$SAMPLE_DIR/ride_istanbul_agop_sigature_bell_a_05.wav
lovel=73
hivel=90
seq_length=2

<region>
sample=$SAMPLE_DIR/ride_istanbul_agop_sigature_bell_b_05.wav
lovel=73
hivel=90
seq_length=2
seq_position=2

<region>
sample=$SAMPLE_DIR/ride_istanbul_agop_sigature_bell_a_06.wav
lovel=91
hivel=108
seq_length=2

<region>
sample=$SAMPLE_DIR/ride_istanbul_agop_sigature_bell_b_06.wav
lovel=91
hivel=108
seq_length=2
seq_position=2

<region>
sample=$SAMPLE_DIR/ride_istanbul_agop_sigature_bell_a_07.wav
lovel=109
seq_length=2

<region>
sample=$SAMPLE_DIR/ride_istanbul_agop_sigature_bell_b_07.wav
lovel=109
seq_length=2
seq_position=2
